<svg xmlns="http://www.w3.org/2000/svg" xmlns:xlink="http://www.w3.org/1999/xlink" version="1.1" x="0px" y="0px" viewBox="0 0 80.7 67.4" enable-background="new 0 0 80.7 67.4" xml:space="preserve"><path fill-rule="evenodd" clip-rule="evenodd" fill="#E82C2E" d="M39.9 28.7L17.7 51.4L1 34.7l22.2-22.6l0 0 c0 0-4.5-4.5-4.5-4.5c-0.7-0.7-1.1-1.7-1.1-2.7v0c0-1.1 0.4-2 1.1-2.7C19.4 1.4 20.3 1 21.4 1h12.9h12.9c1.1 0 2 0.4 2.7 1.1 C50.5 2.8 51 3.8 51 4.8v12.9v12.9c0 1.1-0.4 2-1.1 2.7c-0.7 0.7-1.6 1.1-2.7 1.1l0 0c-1.1 0-2-0.4-2.7-1.1 C44.4 33.2 42.5 31.4 39.9 28.7L39.9 28.7z"/><path fill-rule="evenodd" clip-rule="evenodd" fill="#92111D" d="M67.1 41.5L43.4 65.7L25.6 47.9l23.7-24.1l0 0 c0 0-4.8-4.8-4.8-4.8c-0.8-0.8-1.2-1.8-1.2-2.9v0c0-1.1 0.5-2.1 1.2-2.9c0.7-0.7 1.8-1.2 2.9-1.2h13.7h13.7c1.1 0 2.1 0.5 2.9 1.2 c0.7 0.7 1.2 1.8 1.2 2.9v13.7v13.7c0 1.1-0.5 2.1-1.2 2.9c-0.7 0.7-1.8 1.2-2.9 1.2l0 0c-1.1 0-2.1-0.5-2.9-1.2 C71.9 46.3 69.9 44.4 67.1 41.5L67.1 41.5z"/><path fill-rule="evenodd" clip-rule="evenodd" fill="#FFFFFF" d="M45 45.7L25.3 65.4L8.7 48.7L28.4 29l0 0 c0 0-4.5-4.5-4.5-4.5c-0.7-0.7-1.1-1.7-1.1-2.7v0c0-1.1 0.4-2 1.1-2.7c0.7-0.7 1.6-1.1 2.7-1.1h12.9h12.9c1.1 0 2 0.4 2.7 1.1 c0.7 0.7 1.1 1.6 1.1 2.7v12.9v12.9c0 1.1-0.4 2-1.1 2.7c-0.7 0.7-1.6 1.1-2.7 1.1l0 0c-1.1 0-2-0.4-2.7-1.1 C49.6 50.2 47.7 48.3 45 45.7L45 45.7z"/></svg>